<svg xmlns="http://www.w3.org/2000/svg" viewBox="0 0 400 85.21739130434783" clip-path="url(#clip)" width="728" height="155.09565217391304" style="max-height: 549px;"><defs><clipPath id="clip" clipPathUnits="objectBoundingBox"><rect x="0" y="0" width="400" height="85.21739130434783"/></clipPath></defs><rect x="0" y="0" width="400" height="85.21739130434783" fill="rgb(183, 191, 202)"/><filter id="g0.6"><feGaussianBlur stdDeviation="0.6"/></filter><filter id="g1"><feGaussianBlur stdDeviation="1"/></filter><filter id="g10"><feGaussianBlur stdDeviation="10"/></filter><path d="M1,31L81,76L142,-31L62,-76Z" fill="rgb(221, 221, 228)" fill-opacity="0.50" filter="url(#g1)"/><path d="M316,3L158,264L234,310L392,49Z" fill="rgb(225, 224, 222)" fill-opacity="0.50"/><path d="M229,78L259,95L411,-175L381,-192Z" fill="rgb(147, 159, 175)" fill-opacity="0.50" filter="url(#g1)"/><path d="M28,24L-104,57L-83,141L48,108Z" fill="rgb(223, 220, 219)" fill-opacity="0.50" filter="url(#g1)"/><path d="M117,58L1,80L53,347L169,325Z" fill="rgb(168, 169, 171)" fill-opacity="0.50"/><path d="M196,20L201,43L304,18L299,-4Z" fill="rgb(142, 159, 182)" fill-opacity="0.50"/><path d="M195,24L120,58L207,249L282,215Z" fill="rgb(215, 210, 206)" fill-opacity="0.50" filter="url(#g1)"/><path d="M379,5L496,99L593,-22L476,-116Z" fill="rgb(97, 131, 162)" fill-opacity="0.50"/><path d="M31,28L35,46L137,20L133,2Z" fill="rgb(229, 229, 234)" fill-opacity="0.50" filter="url(#g10)"/><path d="M199,77L212,121L286,99L273,55Z" fill="rgb(168, 169, 171)" fill-opacity="0.50" filter="url(#g1)"/><path d="M175,2L92,29L96,42L179,15Z" fill="rgb(155, 168, 187)" fill-opacity="0.50" filter="url(#g10)"/><path d="M343,25L353,46L509,-34L499,-55Z" fill="rgb(147, 169, 188)" fill-opacity="0.50"/><path d="M64,11L215,10L214,-242L63,-241Z" fill="rgb(158, 176, 203)" fill-opacity="0.50"/><path d="M19,3L-23,24L2,74L44,53Z" fill="rgb(223, 225, 229)" fill-opacity="0.50"/><path d="M79,39L-7,120L21,150L107,69Z" fill="rgb(173, 176, 181)" fill-opacity="0.50"/><path d="M108,71L-61,211L-11,269L157,129Z" fill="rgb(243, 236, 231)" fill-opacity="0.50" filter="url(#g10)"/><path d="M110,4L122,20L206,-43L194,-59Z" fill="rgb(219, 221, 233)" fill-opacity="0.50"/><path d="M270,29L185,62L189,74L274,41Z" fill="rgb(227, 224, 225)" fill-opacity="0.50" filter="url(#g10)"/><path d="M303,82L331,89L392,-151L364,-158Z" fill="rgb(199, 205, 211)" fill-opacity="0.50"/><path d="M354,61L364,73L401,42L391,30Z" fill="rgb(216, 224, 228)" fill-opacity="0.50" filter="url(#g10)"/><path d="M311,9L196,270L211,276L326,15Z" fill="rgb(229, 229, 229)" fill-opacity="0.50" filter="url(#g10)"/><path d="M80,2L-82,56L-77,68L84,14Z" fill="rgb(169, 179, 197)" fill-opacity="0.50" filter="url(#g10)"/><path d="M32,8L-232,84L-229,92L34,16Z" fill="rgb(249, 248, 252)" fill-opacity="0.50" filter="url(#g10)"/><path d="M86,74L33,105L162,315L215,284Z" fill="rgb(124, 136, 148)" fill-opacity="0.50" filter="url(#g1)"/><path d="M173,62L179,71L331,-40L325,-49Z" fill="rgb(151, 163, 178)" fill-opacity="0.50"/><path d="M287,64L231,93L275,176L331,147Z" fill="rgb(185, 186, 189)" fill-opacity="0.50" filter="url(#g0.6)"/><path d="M134,60L-2,379L189,461L325,142Z" fill="rgb(218, 215, 213)" fill-opacity="0.50"/><path d="M158,68L163,76L206,45L201,37Z" fill="rgb(157, 163, 172)" fill-opacity="0.50" filter="url(#g0.6)"/><path d="M184,13L188,29L239,14L235,-1Z" fill="rgb(206, 212, 225)" fill-opacity="0.50"/><path d="M148,55L129,56L137,178L156,177Z" fill="rgb(229, 226, 225)" fill-opacity="0.50" filter="url(#g0.6)"/><path d="M172,13L180,22L329,-110L321,-119Z" fill="rgb(148, 163, 188)" fill-opacity="0.50" filter="url(#g0.6)"/><path d="M311,50L325,66L386,8L372,-7Z" fill="rgb(172, 184, 196)" fill-opacity="0.50"/><path d="M162,43L173,54L270,-43L259,-54Z" fill="rgb(212, 216, 226)" fill-opacity="0.50"/><path d="M299,63L221,275L295,301L373,89Z" fill="rgb(217, 215, 210)" fill-opacity="0.50"/></svg>