<svg xmlns="http://www.w3.org/2000/svg" viewBox="0 0 400 271.30434782608694" clip-path="url(#clip)" width="728" height="493.7739130434783" style="max-height: 549px;"><defs><clipPath id="clip" clipPathUnits="objectBoundingBox"><rect x="0" y="0" width="400" height="271.30434782608694"/></clipPath></defs><rect x="0" y="0" width="400" height="271.30434782608694" fill="rgb(183, 191, 202)"/><filter id="g0.6"><feGaussianBlur stdDeviation="0.6"/></filter><filter id="g1"><feGaussianBlur stdDeviation="1"/></filter><filter id="g10"><feGaussianBlur stdDeviation="10"/></filter><path d="M61,150L38,289L417,348L440,209Z" fill="rgb(43, 54, 50)" fill-opacity="0.50" filter="url(#g10)"/><path d="M247,154L-6,135L-19,317L233,336Z" fill="rgb(108, 115, 117)" fill-opacity="0.50"/><path d="M17,169L-47,272L131,381L195,278Z" fill="rgb(76, 92, 97)" fill-opacity="0.50"/><path d="M31,57L51,214L199,195L179,38Z" fill="rgb(191, 189, 190)" fill-opacity="0.50" filter="url(#g1)"/><path d="M124,252L193,410L671,201L602,43Z" fill="rgb(102, 112, 114)" fill-opacity="0.50"/><path d="M163,92L136,209L242,233L269,116Z" fill="rgb(142, 146, 150)" fill-opacity="0.50" filter="url(#g1)"/><path d="M50,19L-101,108L-71,157L79,68Z" fill="rgb(235, 234, 239)" fill-opacity="0.50" filter="url(#g1)"/><path d="M261,78L306,152L386,103L341,29Z" fill="rgb(219, 219, 217)" fill-opacity="0.50" filter="url(#g1)"/><path d="M185,264L399,283L401,252L187,233Z" fill="rgb(72, 88, 91)" fill-opacity="0.50"/><path d="M67,118L-5,125L4,210L76,203Z" fill="rgb(147, 153, 157)" fill-opacity="0.50" filter="url(#g1)"/><path d="M235,18L487,57L514,-124L262,-163Z" fill="rgb(138, 169, 204)" fill-opacity="0.50" filter="url(#g1)"/><path d="M55,42L168,152L230,88L117,-21Z" fill="rgb(197, 204, 216)" fill-opacity="0.50"/><path d="M260,196L382,222L387,198L265,172Z" fill="rgb(155, 159, 160)" fill-opacity="0.50" filter="url(#g1)"/><path d="M185,147L37,182L52,244L200,209Z" fill="rgb(125, 132, 139)" fill-opacity="0.50"/><path d="M5,224L-31,422L398,499L434,301Z" fill="rgb(74, 89, 95)" fill-opacity="0.50"/><path d="M389,118L237,182L253,221L405,157Z" fill="rgb(174, 175, 171)" fill-opacity="0.50" filter="url(#g1)"/><path d="M35,157L42,175L125,138L118,120Z" fill="rgb(255, 250, 239)" fill-opacity="0.50" filter="url(#g10)"/><path d="M371,65L237,176L252,194L386,83Z" fill="rgb(230, 227, 219)" fill-opacity="0.50" filter="url(#g1)"/><path d="M214,97L234,118L424,-64L404,-85Z" fill="rgb(158, 171, 190)" fill-opacity="0.50" filter="url(#g1)"/><path d="M35,5L-408,144L-401,165L41,26Z" fill="rgb(214, 229, 249)" fill-opacity="0.50" filter="url(#g1)"/><path d="M85,88L-17,162L3,190L105,116Z" fill="rgb(138, 146, 155)" fill-opacity="0.50" filter="url(#g10)"/><path d="M233,163L214,172L223,188L242,179Z" fill="rgb(69, 90, 107)" fill-opacity="0.50" filter="url(#g10)"/><path d="M65,45L361,37L357,-85L61,-77Z" fill="rgb(173, 191, 217)" fill-opacity="0.50"/><path d="M150,9L41,73L51,90L160,26Z" fill="rgb(218, 221, 229)" fill-opacity="0.50" filter="url(#g10)"/><path d="M3,60L6,70L157,23L154,13Z" fill="rgb(159, 173, 194)" fill-opacity="0.50"/><path d="M360,50L484,94L552,-94L428,-138Z" fill="rgb(143, 168, 191)" fill-opacity="0.50"/><path d="M236,51L253,75L339,15L322,-8Z" fill="rgb(143, 162, 186)" fill-opacity="0.50"/><path d="M381,225L141,273L168,405L408,357Z" fill="rgb(83, 97, 101)" fill-opacity="0.50" filter="url(#g0.6)"/><path d="M198,18L1,141L12,158L209,35Z" fill="rgb(167, 175, 186)" fill-opacity="0.50" filter="url(#g0.6)"/><path d="M133,6L200,32L222,-25L155,-51Z" fill="rgb(205, 213, 230)" fill-opacity="0.50" filter="url(#g0.6)"/><path d="M155,46L90,120L118,144L183,70Z" fill="rgb(211, 209, 210)" fill-opacity="0.50"/><path d="M115,101L124,132L273,88L264,57Z" fill="rgb(206, 203, 203)" fill-opacity="0.50"/><path d="M118,192L37,208L47,259L128,243Z" fill="rgb(112, 121, 125)" fill-opacity="0.50"/><path d="M182,168L210,196L258,147L230,119Z" fill="rgb(119, 128, 137)" fill-opacity="0.50"/></svg>